<?xml version="1.0" encoding="UTF-8"?>
<svg id="Layer_2" data-name="Layer 2" xmlns="http://www.w3.org/2000/svg" viewBox="0 0 742.25 265.27">
  <g id="Warstwa_1" data-name="Warstwa 1">
    <g>
      <g>
        <path d="M264.14,201.97c-5.84,9.21-12.76,17.09-20.73,24.53-14.52,13.61-32.24,23.79-51.33,29.42-20.86,6.17-43.29,6.9-64.52,2.17-14.45-3.21-28.32-8.97-40.8-16.92-15.24-9.68-28.4-22.6-38.37-37.66-.31-.46-.59-.92-.98-1.51,0,0-4.41-.78-5.49-1,7.13,11.8,16.16,22.58,26.56,31.63,12.02,10.49,25.93,18.8,40.89,24.35,30.1,11.27,64.32,11.03,94.25-.66,19.36-7.5,36.89-19.66,50.74-35.12,5.81-6.46,10.61-12.73,15.04-20.2l-5.26.96h0Z" fill="#4d4d4d" stroke-width="0"/>
        <path d="M91.67,21.16c18.46-10.66,39.64-16.55,60.95-17.01,20.48-.51,41.07,3.94,59.47,12.98,16.74,8.18,31.66,20.07,43.4,34.54,14.48,17.77,24.06,39.49,27.35,62.19.04.25,0-.03.03.23.37-.08,3.85-.96,3.99-.99-.38-2.66-.71-4.64-1.26-7.28-4.81-23.62-16.3-45.81-32.73-63.43-12.83-13.84-28.65-24.91-46.07-32.18C188.08,2.36,167.54-1.02,147.3.26c-10.54.65-21.01,2.57-31.09,5.71-15.99,4.97-31.01,13.03-44.01,23.59-15.25,12.35-27.73,28.11-36.2,45.82-5.78,12.02-9.62,24.51-11.53,37.7,1.17.3,2.7.7,4,1.02.2-1.42.43-2.76.68-4.17,3.1-17.45,9.9-34.24,19.81-48.93,10.95-16.3,25.68-30.04,42.7-39.82v-.02Z" fill="#4d4d4d" stroke-width="0"/>
      </g>
      <path d="M.02,181.17v-.6c3.8,1.71,8.58,2.93,12.57,4.08,8.75,2.44,17.66,4.29,26.61,5.88,11.05,1.95,22.18,3.39,33.33,4.59,30.74,3.27,61.69,4.57,92.6,4.24,22.1-.26,44.19-1.37,66.19-3.48,20.24-1.97,40.46-4.62,60.25-9.37,6.44-1.58,13.61-3.35,19.72-5.95v.58c0,.45-.21.88-.58,1.14-2.8,1.99-6,3.36-9.3,4.3-9.64,2.9-19.53,4.88-29.44,6.59-20.88,3.51-41.97,5.62-63.09,7.03-24.38,1.58-48.83,2.05-73.25,1.47-26.32-.65-52.63-2.46-78.74-5.87-14.1-1.9-28.18-4.17-41.95-7.79-3.27-.91-6.57-1.76-9.69-3.1-1.62-.72-3.16-1.63-4.64-2.62-.38-.26-.61-.69-.61-1.15l.02.03Z" fill="#4d4d4d" stroke-width="0"/>
      <g>
        <g>
          <path d="M189.35,93.69c-.2.69-4.15,3.94-4.36,4.63,0,.03-.03.07-.05.1-.21.3-.78.34-1.22.24-.39-.09-.69-.3-.53-.54.35-.61.41-2.83,1.87-2.7-.07-.62.49-2.07-.27-3.03-.83-1.02-2.63-2.83-2.98-2.97-.28-.14-2.36-.55-2.71-.76-.35-.28-.9-.9-.42-1.8.42-.89,1.67-1.79,1.67-2.48,0-5.26,2.84,1.59,4.09,2.48,1.25.9,1.04,1.45,2.01,1.8,1.04.34,2.15,1.24,2.63,2.14.41.9.55,2.2.27,2.89h0Z" fill="#f50" stroke-width="0"/>
          <path d="M183.26,93.28c-1.18-.63-1.8-.83-1.67-1.52.14-.62.76-.89-.13-1.45-.91-.55-1.74.62-2.5.34-.49-.7-.35.9-1.19,1.1-.69.48.28.69.56,1.59,1.66.62.06,2.97,1.8,3.59,1.39-.35,1.25-1.87,2.71-2.21.76-.9,1.66-.9.42-1.44h0Z" fill="#f50" stroke-width="0"/>
          <path d="M183.73,98.65c.44.1,1,.05,1.22-.24-.4.08-.81.17-1.22.24Z" fill="#f50" stroke-width="0"/>
          <path d="M261.49,109.43c-2.75-14.19-8.83-27.36-16.79-38.91-.16-.23-.32-.44-.48-.65-16.03-22.86-41.1-39.14-70.14-44.05-1.32-.23-2.66-.46-4.03-.64-.67-.08-1.34-.18-2.01-.25-.76-.08-1.54-.16-2.32-.24-1.3-.12-2.61-.22-3.92-.29-.33-.02-.66-.04-1-.05-1.68-.08-3.38-.13-5.09-.13s-3.53.05-5.27.13c-.17,0-.33.01-.5.02-1.63.09-3.25.2-4.86.37-.27.03-.53.05-.8.08-1.36.15-2.7.32-4.04.5-.83.12-1.65.26-2.46.39-.37.06-.74.13-1.1.19-16.88,2.96-32.41,9.75-45.56,19.47-.33.24-.64.5-.96.74-.12.09-.24.18-.36.28-.19.14-.38.28-.56.42-8.47,6.55-15.91,14.3-22.03,23.02-.42.6-.85,1.18-1.22,1.8-7.01,11.54-9.07,15.15-12.89,25.93-.26.74-2.46,7.7-3.34,11.96-.26,1.23-.86,3.58-1.45,8.24,0,0,1.57.23,2,.29.61-4.57,1.09-6.45,1.42-7.9.2-1.01.41-2,.69-2.83.18,2.63,1.92,8.91,2.87,11.42,2.59.33,5.52.65,5.81.69.9-1.23,1.86-5.91,3.32-6.66v-1.78c1.39-1.02,4.15-.52,6.02-.32.69.49,1.32.87,1.92,1.23-.84,1.84-3.01,6.5-3.76,8.38.5.02.99.1,1.46.15.69-1.7,2.68-6.17,3.44-7.84,1.58.94,2.94,1.82,4.52,3.71.89.66.5,4.11.47,4.92.82.07.96.08,1.66.14l.58-3.3c1.33-1.9,3.81-1.96,5.42-3.53h.36c.98.53,1.99,1.06,3.02,1.57-.42,1.1-1.8,4.73-2.19,5.83.46.04.82.05,1.33.1.34-.95,1.7-4.4,2.05-5.35,2.68,1.09,9.01,3.39,18.55,6.32.68.19.85.22,1.1.27l.08.02c.4,0,2.61.11,3.98.17-.97-.28-2.3-.73-3.74-1.18,2.2-8.77,3.97-13.52,7.94-24.42,5.24,1.42,10.86,2.54,16.77,3.34-1.21,6.46-2.69,15.82-3.7,22.78.5.02.97.03,1.41.03,1-6.91,2.41-16.23,3.61-22.64,5.88.73,12.03,1.13,18.35,1.16l-.02,21.74h1.31l.03-21.74c6.3-.03,12.4-.42,18.25-1.15,1.23,6.48,2.68,15.62,3.7,22.62.44,0,.79,0,1.25-.02-1.02-7.05-2.39-16.25-3.62-22.78,5.08-.68,9.96-1.61,14.57-2.75.78.6.13,2.16,1.41,2.46v2.66c-1.46.34-.42,2.32-1.81,2.66-2.28-.07-4.18-.18-6.12,1.18,1.18,1.9.38,5.64.79,7.75,1.12,1.09,1.46,1.06,2.91,1.82,1.25,0,2.99.75,4.17.75,2.67-1.34,3.89-1.73,5.29-3.7-1.54-.88-.5-3.04-.71-4.26.18-.1.32-.21.44-.33.87,2.66,1.69,5.36,2.49,8.07-.08.09-.14.2-.23.28-2.42-.33-4.76,2.41-7.18,2.2-.28-.33-.56-.61-.9-.95-1.19,1.23-.53.84-1.77,2.07.02.09.05,2.48.06,2.59,16.05-.61,39.41-1.59,61.95-4.36-4.04-3.24-9.27-8.79-13.29-12.15,1.25-.21,2.71.61,3.61-.89-.63-.41-1.12-.88-.9-1.77,2.22-.28,2.35,2.92,4.58,2.66,2.36,2.48,4.84,4.82,7.57,6.92.2.59,1.48,4.24,1.67,4.83,2.84-.39,4.93-.66,8.48-1.17l-1.53-8.35h-.03ZM59.96,98.55c-1.46.34-.41,2.32-1.81,2.66l-2.78,12.72c-1.12-3.71-1.46-5.16-1.72-8.22-.06-.72,0-1.34.04-1.96.1-.28.2-.56.31-.83.71.47,1.96-.02,1.87-1.04,1.04-1.02,2.64-3.87,2.08-4.7.9-5.38,3.05-7.35,4.72-10.14.14,4.09-2.3,7.56-2.71,11.5h0ZM221.83,77.93c.42-.61.91-1.16,1.8-.88.53.51,1.07,1.04,1.6,1.56-.51.61-1.04,1.21-1.61,1.8-1.02-.98-1.95-2.05-1.79-2.48ZM223.43,82.45c.66.51,1.56.9,2.43-.09-.19-.13-.69-.53-1.27-1.05.56-.59,1.09-1.18,1.59-1.78l.17.17c1.87-.34,3.68.2,5.41.88-.27.89.27,1.37.9,1.78-.14,1.43-.97,2.52-1.8,3.54h-1.81c-1.53.81-1.66,2.51-2.78,3.54v.59c-1.46-2.07-2.96-4.09-4.51-6.08.57-.49,1.13-.99,1.66-1.5h0ZM209.55,93.48c.99,1.73,1.96,3.48,2.88,5.25-.97-.41-1.27-1.64-3.51-1.77.21-.88-1.29-2.34-1.92-2.75.16-.17,1.58-.53,2.55-.72h0ZM202.82,71.67c-1.25.55-.84,1.71-.91,2.66,1.54.89.7,2.38.91,3.53-.43.26-.84.52-1.25.79-2.24-3.1-4.59-6.13-7.07-9.07,2.12-1.07,4.07-2.21,5.8-3.44-.26.71-.06,1.75-1.08,1.99,1.17,1.22,2.7,2.04,3.61,3.53h0ZM184.06,72.29c-.36.11-.74.21-1.1.32-4.11-7.73-8.32-14.17-12.37-18.8,1.58-.49,3.06-1.05,4.4-1.68,2.36,1.93,4.66,3.94,6.88,6.02.13,1.7,1.39,3.25.99,5.04,1.38.41.35,2.31,1.81,2.66.28,1.9-.28,3.61-.91,5.38.09.38.19.72.3,1.05h0ZM162.81,55.45c2.25-.28,4.4-.69,6.39-1.23,4.05,4.51,8.3,10.97,12.47,18.78-3.63,1-7.52,1.78-11.61,2.33-2.37-8.57-4.84-15.45-7.24-19.88h0ZM168.73,75.5c-3.97.49-8.09.77-12.36.8v-20.4c1.72-.03,3.41-.12,5.04-.28,2.4,4.24,4.91,11.15,7.32,19.87h0ZM183.76,54.36c-1.28.29-.63,1.86-1.41,2.46-1.97-1.84-4.01-3.6-6.09-5.32,1.22-.66,2.32-1.37,3.27-2.15,2.64,1.4,5.27,2.95,7.88,4.64-1.18.24-2.39.36-3.66.36h0ZM180.59,48.45c.79-.77,1.47-1.58,1.98-2.44,4.13,1.55,8.12,3.26,11.94,5.12.66,1.02.37,2.18,1.7,3.05.28.88-.28,1.36-.91,1.77.63.48,1.18.95.91,1.84-.35,0-.72,0-1.1-.02-.23,0-.47-.02-.71-.06.05-.15.05-.29.05-.43-.02-.56-.46-.94-.96-1.33-.27.02-.57,0-.86,0-.4-.28-.8-.55-1.2-.83.52-.08.87-.49,1.17-.94.28-.82-.27-1.29-.9-1.77-.84.49-1.71.83-2.58,1.12-2.82-1.86-5.66-3.55-8.52-5.08h0ZM197.48,49.49c-.97.15-2.07-.28-2.97.2-3.64-1.75-7.42-3.38-11.35-4.85.33-.75.52-1.55.61-2.36,2.92.57,6.38,1.46,10.21,2.73.26.24.51.49.78.75-.35.27-.62.61-.9.87.76,1.43,2.5,1.64,3.61,2.66h0ZM189.9,60.37c1.59.81,2.15,2.65,3.6,3.61.12,1.12,1.12,2.56,1.94,3.65-.59.32-1.18.63-1.8.93-.7-.82-1.41-1.62-2.13-2.43-.12-2.07-2.17-3.48-1.6-5.76h0ZM195.67,42.4c-.34-.33-.62-.61-.9-.88-.46.77-1.61,1.07-1.8,1.98-3.41-1.07-6.51-1.85-9.16-2.35-.06-.67-.2-1.31-.42-1.95,4.53.49,9.28,1.33,14.1,2.59,0,1.48-1.35.1-1.82.61ZM184.85,37.02c.41-.4.85-.83,1.3-1.28,1.05.05,2.1.14,3.15.24.24.1.49.19.75.21h-1.59c-.69.69-1.43,1.37-2.13,2.05-1.21-.16-2.4-.3-3.58-.41-.36-.64-.78-1.25-1.29-1.84,1.21.06,2.43.12,3.39,1.02h0ZM118.09,33.08c6.4-3.12,14.49-5.42,23.56-6.62,2.35-.31,4.72-.54,7.12-.7,1.46.25,2.95.36,4.43.56.22-.32.47-.61.78-.77.36,0,.73-.02,1.09-.02.91,1.36,2.33.66,3.55.79.17-.38.41-.59.69-.72.63.02,1.25.02,1.87.05.24,0,.48.04.72.05,8.65.49,11.6,3.76,14.45,6.45-1.48-.79-3.14-1.5-4.96-2.09-4.48-1.46-9.87-2.3-15.65-2.31-10.27.03-19.28,2.64-24.19,6.77-1.23-.09-2.47-.13-3.71-.13-.98,0-1.97.03-2.96.08-.17-.19-.37-.36-.61-.52-.14.28-.31.46-.5.6-.75.05-1.51.12-2.27.2.22-.83-.23-1.31-.84-1.77-1.82.66-2.66.66-3.47.55.31-.15.6-.31.92-.46h-.02ZM128.71,37.82c-2.92.3-5.97.75-9.06,1.36.62-.57,1.23-1.13,1.83-1.69,1.43-.14,2.53-.93,3.62-1.74.91-.04,1.83-.06,2.73-.06.81,0,1.6.04,2.4.08-.61.65-1.1,1.34-1.51,2.05h0ZM128.81,46.83c-.86.08-1.71.15-2.56.24.82-.33,1.6-.69,2.43-1,.03.32.07.6.13.76ZM116.06,42.8c.58-.69,1.2-1.33,1.83-1.95,3.48-.75,6.89-1.29,10.19-1.64-.23.63-.37,1.28-.43,1.95-3.24.62-7.15,1.64-11.49,3.12-.23-.45-.35-.92-.1-1.47h0ZM116.96,46.34c.03-.33-.05-.63-.18-.92,4.1-1.39,7.79-2.36,10.88-2.96.1.81.29,1.61.61,2.36-5.54,2.08-10.8,4.45-15.79,7.09,0-.1-.03-.17-.03-.27,1.8-1.5,3.2-3.4,4.51-5.31h0ZM125.49,50.7c0,.22.06.39.1.58-1.7,1.02-3.39,2.12-5.07,3.26-.15.1-.3.2-.45.31-1.35.93-2.69,1.88-4.02,2.89v-1.66c-.82-1.17-2.45-1.69-3.2-2.89,4.17-2.22,8.6-4.2,13.17-6.03-1.01,1.05-2.64,1.45-3.31,2.92.74,1.16,1.81.65,2.78.63h0ZM111.46,64.03c.91-.2,1.39.28,1.81.9.62-.54,1.25-1.16,1.8-1.77h2.78c-.28.88.21,1.36.9,1.77.42-.62.9-1.09,1.8-.9.63-.4,1.11-.88.91-1.69-.62-1.3-1.74-.9-2.71-.97-.28-.81,2.98-3.88,3.61-4.27.85-.7.4-1.51-.31-2.04,1.46-.98,2.93-1.91,4.41-2.8.29.08.63.12,1.07.02-.56.67-1.13,1.27-1.69,1.94.68,1.29,1.27,2.64,1.39,4.08-3.38,3.25-6.6,6.65-9.65,10.19-2.46-1.22-4.65-2.56-6.54-3.99.15-.15.3-.3.43-.46h-.01ZM125.88,63.99c-.62.05-1.17.11-1.79.17-.4.99-2.03,1.34-1.54,2.82.68.54,1.3,1.1,1.97,1.59.36.86-.14,1.38-.73,1.85.59.26.86.64,1,1.06-2.12-.74-4.12-1.54-5.98-2.42,2.4-2.78,4.91-5.48,7.52-8.08-.44.93-.69,1.91-.45,3.01h0ZM101.54,83.57c.62-.61,1.18-1.22,1.81-1.77-.56-1.16,1.38-1.49.9-2.65-.62-.61-1.25-1.23-1.73-1.84.48-1.36-1.04-2.24-.91-3.53,1.08-.66.95-1.61.89-2.56,1.63-1.62,3.28-3.19,4.96-4.71.74-.29,1.46-.7,2.21-.7.14-.12.28-.26.42-.39,1.94,1.48,4.15,2.85,6.61,4.11-1,1.19-1.99,2.4-2.95,3.63-1.05.56-2.03,1.2-2.83,2.05-1.81,1.91-2.64,4.84-4.86,6.6-.15,1.36-1.05,2.45-1.81,3.55h-2.71v-1.78h0ZM97.03,99.21c-1.2.39-2.41.79-3.61,1.18-1.25-.2-2.71.61-3.61-.89v-2.64c.56-.62,1.18-1.23,1.8-1.78.21-.89-.27-1.36-.9-1.77-1.11,1.02-2.84,1.23-3.61,2.65-2.01.2-.34-1.36-.9-1.77,1.12-1.64,2.99-2.45,4.51-3.54.28.27.63.54.9.89.63-.48,1.12-.96.91-1.78-1.04-1.09-2.84-1.23-3.61-2.72.77-1.5,1.84-.96,3.17-1.17.32.24.65.48.99.72.81,3.05,1.28,5.32,2.16,8.49-.9-.28-1.39.27-1.8.88.2.9-.28,1.37-.91,1.77.35,1.36,2.35.41,2.71,1.77.69-.26,1.36-.51,2.05-.77-.08.15-.16.31-.24.47h-.01ZM112.29,95.97c-4.69.21-9.12,1.32-13.48,2.68.1-.2.2-.4.31-.59,2.85-1.05,5.71-2.07,8.68-2.97.19-.18.38-.35.57-.53,1.28.49,2.59.97,3.93,1.42h.08s.07.05.1.06c-.06-.02-.12-.04-.18-.06h-.01ZM117.79,96.31c-2.93-.83-5.75-1.76-8.42-2.77.07-.07.15-.15.22-.23h7.29c-.28.88.28,1.36.9,1.77.15.05.31.06.46.1-.15.38-.3.74-.45,1.13h0ZM117.79,71.19c-.41.22-.84.42-1.27.62.46-.57.92-1.13,1.39-1.69,2.18,1.04,4.53,1.98,7.04,2.82,0,.34.02.68.1.99.62.51,1.42.74,2.18,1.08-1.36,2.66-2.71,5.47-4.04,8.4-.11-1.18.57-2.52-.89-3.36-.41.61-.9,1.15-1.81.88-.48-2.65-1.25-5.24-.9-7.96-.55-.61-1.18-1.23-1.8-1.77h0ZM135.63,99.96c-5.84-.78-11.38-1.89-16.54-3.28.2-.53.41-1.06.61-1.59,1.15-.32,2.23-1,3.5-.82.62-.61,1.18-1.23,1.8-1.76v-2.66c-1.1-.61-1.45-1.73-2.03-2.71,1.76-4.04,3.56-7.88,5.38-11.47.19.17.38.34.54.56.27-.63.6-1.24.95-1.82,3.46.92,7.16,1.64,11.03,2.18-1.84,6.91-3.61,14.82-5.25,23.37h0ZM133.52,67.8c1.27-1.28,2.94-1.99,4.23-3.07.91.13,1.36-.4,1.78-1.06-.36-.84.07-1.37.72-1.84.55-.05,1.17-.1,1.79-.17-.99-.92-.09-3.07-.44-4.47,1.19-.66.67-1.7.64-2.72,0-.08.07-.14.09-.22,1.89.51,3.92.89,6.03,1.17-2.36,4.43-4.81,11.31-7.15,19.9-3.71-.51-7.26-1.19-10.58-2.05.94-1.29,2-2.49,3.05-3.7-.05-.61-.11-1.23-.17-1.77h.01ZM155.06,101.27c-6.25-.03-12.31-.41-18.1-1.13,1.63-8.57,3.4-16.48,5.24-23.37,4.12.51,8.43.8,12.86.83v23.68h0ZM155.06,76.3c-4.33-.03-8.5-.32-12.52-.81,2.39-8.73,4.86-15.65,7.22-19.9,1.72.18,3.48.29,5.3.32v20.4h0ZM155.73,54.62c-4.38,0-8.48-.51-12.12-1.39.8-.37,1.68-.68,1.79-1.45-1.21-.98-2.7-.57-3.61-1.92-.52-1.87,1.02-3.93,1.54-5.68.3-2.63-2.94-.14-3.91-.12-2.25-2.18-1.25-2.82-1.92-3.16-1.78,2.42-5.08,3.62-8.3.77-.09.08-.18.28-.26.51,0-.15-.04-.33-.04-.5-.02-3.28,2.78-6.45,7.65-8.81,4.84-2.35,11.62-3.84,19.17-3.84s14.32,1.48,19.17,3.84c1.02.49,1.94,1.03,2.77,1.59.56.39,1.1.78,1.57,1.18,2.14,1.84,3.32,3.91,3.3,6.03,0,3.43-2.79,6.67-7.65,9.06-4.84,2.39-11.62,3.87-19.17,3.87l.02.02ZM156.38,101.27v-23.68c4.38-.03,8.63-.31,12.71-.82,1.86,6.88,3.65,14.8,5.3,23.37-5.76.72-11.79,1.1-18,1.13h-.01ZM186.52,97.4c.16.26.35.43.54.56-.69.15-1.39.31-2.1.45-.21.3-.78.34-1.22.24-2.61.51-5.29.95-8.04,1.31-1.64-8.54-3.43-16.47-5.3-23.37,4.18-.58,8.17-1.39,11.9-2.43,2.98,5.71,5.89,12.08,8.65,18.94-.97,1.84-2.47,3.37-4.43,4.3h0ZM196.24,80.11c-1.12.61-.85.75-1.55-.35-.62-1.15,0-1.98-.2-2.46-.28-.41-2.28-.8-2.28-.8,0,0-2.01.69-1.8,1.57.2.88,1.8,2.65,1.8,2.65,0,0,.62.89,2.49,2.05-2,1.22-.28,2.44-1.87,3.94v1.77c-.51.57-1.09,1.13-1.66,1.64-2.43-5.84-4.97-11.33-7.56-16.31.31-.09.61-.19.91-.28.89,2.07,2.11,3.12,3.49,4.26,1.53-.89,1.31-2.65,1.52-3.88,1.19-.54,1,.33,2.18-.21.9.88,1.8,1.77,2.71,2.65.63-.41,1.12-.89.91-1.77-.63-.41-1.18-.88-.91-1.78.25-.16.45-.34.63-.53,1.89,2.32,3.72,4.7,5.46,7.12-.79.59-1.53,1.24-2.18,2.01-.62,0-1.45-1.3-2.08-1.3h-.01ZM219.01,114.29c-1.18,1.36-3.27,1.29-4.51,2.65-1.67-1.23-1.51-1.65-1.85-3.08-.56-.61-.79-3.4-1.41-3.94-1.33-.14-2.99,1.37-4.38.82-2.15,1.09-3.18,3.06-5.48,3.96-.41.4-.73.91-1.03,1.43-.96-3.24-1.97-6.43-3.03-9.57,0-.1.02-.21.04-.31.13-1.29-.77-1.91-.14-3.35,1.79.13,1.47-2.05,3.56-1.23,1.45-.75,1.17-2.31,2.21-3.34.9-.27,2.82,1.73,3.02,2.56.21.74,3.67,1.8,5.63,1.97,4.69.41,3.02,2.86,4.2,3h.06c-.68-.02-4.87-.13-5.63.56.58,1.95,3.02,1.35,3.57,1.95.51.63,2.05-.26,2.69-1.3,1.17,2.56,2.26,5.15,3.28,7.73-.26-.14-.53-.3-.79-.5h0ZM227.2,115.18c-1.16-.24-2.36-.06-3.56.06,1.13-.59,2.22-1.19,3.29-1.81.3.54.54,1.08.27,1.75ZM230.16,109.86h-2.05c-.62.61-1.25,1.16-1.81,1.77-.02.21.01.41.07.61-1.61.95-3.31,1.85-5.07,2.73-1.37-3.53-2.88-7.05-4.53-10.53-.03-.19-.07-.39-.08-.61-.15-1.23,1.26-.1,1.61-.98.28-.88-.59-.55-1.01-1.38-.46-.72-1.92-1.12-2.52-1.15-.94-1.87-1.92-3.72-2.94-5.57.89.96,1.31,1.46,3.05,1.8,2.15,1.1,1.23,1.12,2.82,2.75,0,.69,1.4,1.77,1.47,2.59.13.75.83.61,1.59,1.29.84.69,1.49,1.99,1.77,3.01.2.95.18-.9,2.33-.96,2.15-.13,0-.48,1.46-1.15,1.46-.62,1.05,0,1.67.48.69.41.34-.76,1.38-1.51s1.32-.98.42-1.6c-.9-.67-.27-.97-1.46-.36-1.1.67,0,1.16-2.37.82-2.35-.34-.2-1.23-.96-2.04-.84-.75.3-1.48-2.96-1.48-1.25-.61-1.07-.85-1.13-1.87.62-.55,1.18-1.15,1.8-1.77,2.59-.98,3.19-2.34,2.64-3.5-.55-.54-1.99-.77-2.62-1.38.2-1.77-1.68-2.69-2.73-3.97,0-.22.03-.38.05-.53.25-.19.51-.38.74-.56,1.92,2.44,3.76,4.94,5.53,7.52v.65c-.56.61-1.94,1.84-1.94,3.79,1.52,1.5,3.2.98,4.66,2.48.36-.43.66-.86.93-1.3,1.72,2.78,3.35,5.61,4.86,8.49-1.43,1.18-2.99,2.32-4.63,3.43h-.04ZM235.82,105.56c-1.61-3.07-3.35-6.09-5.21-9.05.08-.26.15-.52.19-.81.35.27.63.54.91.88.62-.61,1.25-1.22,1.87-1.77v-1.77c1.45-.34,1.73,1.23,2.71,1.77.38,2.77,1.93,5.27,2.49,7.99-.92.93-1.91,1.85-2.96,2.75h0ZM253.43,97.48c-2.22-1.03-4.3-2.26-6.31-3.55,0-.5.03-.98.07-1.47.14-.38.29-.75.42-1.12,1.09.14,1.8,1.38,3.12.82.76-.31.91-.84.92-1.41.49.84.95,1.71,1.41,2.59.25,1.43.99,3.08.37,4.14h0ZM253.43,91.28c-.64-1.15-1.28-2.27-1.96-3.37.35-.21.76-.42,1.19-.61.64,1.41,1.23,2.84,1.81,4.27-.44-.04-.84-.12-1.05-.3h0Z" fill="#f50" stroke-width="0"/>
        </g>
        <path d="M154.97,209.53v16.05c-7.87-.02-15.51-.53-22.79-1.49-.03-.09-.06-.19-.08-.29,1.09-.44,2.36.14,3.52-.12,1.45-.77,1.59-2.52,2.69-3.62-.62-2.22.84-4.17.9-6.34h1.79c.8-.92,2.52-3.03,2.41-4.27-8.79-.11-43.9-1.38-57.04-2.66-.02,1.27,1.52,3.18,2.14,4.31-3.74-1.99-4.86-2.51-7.84-4.82-.26-.02-4.31-.42-4.6-.45,21.25,22.63,48.39,35.21,79.54,35.21s60.35-14.26,79.59-35.21c0,0-12.07,1.23-19.33,1.66-1.01,1.37-2.52,1.97-2.54,2.3-.15.25-1.52,3.8-2.45,6.57-2.57.96-5.25,1.87-8.02,2.69,1.62-3.43,2.88-7,3.9-10.98l-1.38.08c-1.1,4.15-2.51,7.9-4.26,11.4-6.48,1.86-13.47,3.31-20.82,4.33,1.06-4.14,2.03-9.58,2.59-14.77l-1.39.04c-.58,5.3-1.54,10.8-2.63,14.93-7.23.94-14.81,1.45-22.61,1.47l-.07-16.05h-1.24l.02.03ZM154.97,226.9v12.8c-5.16-.03-10.24-.43-15.19-1.17l-.04-.06h0c-3.06-2.34-5.42-6.88-7.17-13,7.17.91,14.67,1.4,22.41,1.43h-.01ZM81.06,208.77c-.58-.59-1.13-1.2-1.7-1.8,3.1,2.24,6.57,4.32,10.36,6.24,1.66,2.73,3.54,5.23,5.63,7.5-5.1-3.57-9.89-7.56-14.29-11.95h0ZM112.12,230.29c.13-.15.24-.32.18-.51,1.35-.13,1.49.09,2.38-.54,1.12,1.3,2.33,2.51,3.62,3.63-2.1-.79-4.15-1.67-6.18-2.59h0ZM122.08,234.21l-1.7-1.28c-1.41-1.12-2.71-2.36-3.93-3.69,1.27.38,2.44,1.16,3.83.75.63-.62,1.25-1.18,1.8-1.81h1.8c.7-.41,1.18-.9.9-1.8-.28-.36-.54-.64-.9-.9.69-.39,1.38-.71,2.08-.98,1.7.28,3.42.53,5.17.77,1.54,5.55,3.59,9.95,6.29,12.83-5.26-.93-10.37-2.24-15.33-3.9h-.01ZM156.28,226.89c7.67-.02,15.11-.52,22.22-1.42-1.77,6.11-4.16,10.65-7.25,12.99l-.1.1c-4.86.72-9.82,1.11-14.87,1.13v-12.8ZM179.94,225.28c7.17-.97,14.01-2.35,20.38-4.11-2.53,4.61-7.3,9.93-11.24,13.06-5.03,1.68-10.22,3.01-15.56,3.93,2.75-2.87,4.86-7.3,6.42-12.88h0ZM192.43,233.08c3.94-3.37,7.12-7.55,9.62-12.39,2.89-.83,5.67-1.74,8.35-2.72-.19.62-.3,1.11-.33,1.39-.11,1.23,2.08,1.49,3.9,1.5.72,0,1.37-.04,1.82-.07-2.07,1.45-4.19,2.82-6.37,4.12-5.38,3.2-11.06,5.95-16.99,8.17h0Z" fill="#f50" stroke-width="0"/>
      </g>
      <g>
        <path d="M36.57,172.04v6.41c-8.1-1.34-16.19-2.81-24.24-4.43v-15.21c-1.71.52-3.42,1.04-5.13,1.55v-5.37c0-.65.29-1.06.86-1.21,1.43-.46,2.85-.91,4.28-1.38v-20.12c2.56.51,5.12,1.01,7.68,1.5v16.63c3.41-1.08,6.83-2.18,10.25-3.31v5.23c0,.79-.32,1.25-.97,1.39-3.09,1.07-6.19,2.12-9.27,3.16v12.24c5.51,1.04,11.03,2.02,16.56,2.93h-.02Z" fill="#4d4d4d" stroke-width="0"/>
        <path d="M82.13,184.5c-2.01-.2-4.01-.41-6.01-.63-.67-.07-1.22-.31-1.65-.69-.42-.38-.74-.84-.95-1.36-1.04-2.96-2.08-5.92-3.12-8.88-5.76-.68-11.52-1.42-17.27-2.23-1.04,2.69-2.07,5.38-3.11,8.07-.15.42-.45.78-.89,1.08s-.99.4-1.64.31c-2.01-.3-4.03-.61-6.04-.93,5.45-13.05,10.91-26.17,16.37-39.35,2.63.35,5.27.69,7.9,1.02,5.46,14.59,10.93,29.12,16.41,43.59h0ZM68.41,167.22c-1.69-4.83-3.39-9.67-5.08-14.51-.25-.65-.51-1.41-.78-2.29-.27-.88-.54-1.83-.81-2.85-.25.95-.51,1.84-.78,2.66s-.53,1.53-.78,2.14c-1.68,4.39-3.36,8.77-5.04,13.15,4.42.61,8.84,1.18,13.26,1.71h0Z" fill="#4d4d4d" stroke-width="0"/>
        <path d="M119.68,148.43c0,.88-.25,1.68-.75,2.39-7.18,9.73-14.35,19.34-21.52,28.86,7.25.58,14.51,1.05,21.78,1.41v6.21c-10.64-.53-21.27-1.29-31.88-2.28v-3.06c0-.39.07-.75.2-1.09.14-.34.31-.66.52-.95,7.18-9.47,14.36-19.04,21.55-28.72-6.98-.44-13.95-.98-20.92-1.62v-6.18c10.32.95,20.66,1.68,31.01,2.18v2.86h.01Z" fill="#4d4d4d" stroke-width="0"/>
        <path d="M166.27,188.12c-2.01.03-4.03.05-6.04.06-.68,0-1.23-.16-1.66-.5-.43-.33-.75-.75-.96-1.25-1.05-2.84-2.09-5.67-3.14-8.51-5.8,0-11.6-.09-17.4-.23-1.05,2.81-2.09,5.62-3.14,8.43-.16.44-.45.83-.9,1.18s-1,.52-1.66.5c-2.03-.07-4.07-.14-6.1-.23,5.51-13.69,11.01-27.44,16.52-41.25,2.65.05,5.31.09,7.96.11,5.5,13.96,11,27.85,16.5,41.69h.02ZM152.47,172.43c-1.7-4.64-3.41-9.28-5.11-13.93-.25-.62-.51-1.35-.79-2.2-.27-.85-.54-1.77-.81-2.75-.25.98-.51,1.89-.78,2.75-.27.85-.53,1.59-.79,2.23-1.69,4.58-3.39,9.16-5.08,13.73,4.45.1,8.91.16,13.36.18h0Z" fill="#4d4d4d" stroke-width="0"/>
        <path d="M207.74,186.34c-2.35.17-4.7.32-7.05.47-1.33.08-2.3-.38-2.9-1.39-2.94-4.29-5.88-8.59-8.82-12.91-.33-.49-.69-.82-1.09-1.02-.4-.19-.98-.28-1.76-.24-1.11.05-2.23.09-3.34.13v16.31c-2.6.1-5.21.18-7.81.25v-41.74c4.27-.11,8.54-.26,12.81-.45,2.84-.13,5.29.04,7.33.52,2.04.48,3.71,1.2,5.02,2.18,1.3.98,2.27,2.18,2.89,3.61.62,1.43.93,3.03.93,4.8,0,1.4-.21,2.75-.62,4.02-.42,1.28-1.01,2.45-1.8,3.52-.78,1.07-1.75,2.03-2.9,2.86-1.15.84-2.46,1.52-3.93,2.04.5.26.97.58,1.39.95s.81.82,1.16,1.34c3.5,4.94,7,9.85,10.5,14.74h-.01ZM187.67,165.61c1.47-.06,2.75-.31,3.85-.73,1.09-.42,1.99-.97,2.7-1.65.71-.68,1.23-1.48,1.58-2.38.35-.9.52-1.89.52-2.94,0-2.12-.7-3.7-2.1-4.77-1.4-1.06-3.55-1.52-6.43-1.39-1.66.07-3.33.14-4.99.2v13.86c1.63-.06,3.25-.13,4.88-.2h-.01Z" fill="#4d4d4d" stroke-width="0"/>
        <path d="M238.91,149.29c-.23.43-.48.75-.74.96-.26.21-.58.34-.97.38-.4.04-.84-.06-1.31-.3-.47-.25-1.04-.52-1.69-.81-.66-.29-1.42-.55-2.3-.75-.88-.21-1.91-.25-3.11-.13-1.08.11-2.02.33-2.83.67s-1.49.76-2.04,1.28c-.55.51-.96,1.1-1.23,1.77-.27.67-.41,1.39-.41,2.16,0,.98.28,1.78.82,2.38.55.6,1.28,1.09,2.18,1.47.91.38,1.94.69,3.1.94s2.34.52,3.56.81c1.21.29,2.4.64,3.56,1.06s2.19,1,3.09,1.73c.9.74,1.63,1.67,2.18,2.82.55,1.15.82,2.59.82,4.32,0,1.88-.32,3.69-.97,5.41-.65,1.72-1.59,3.26-2.83,4.63-1.24,1.36-2.76,2.49-4.55,3.39-1.79.89-3.84,1.46-6.16,1.68-1.33.13-2.64.12-3.93-.01-1.29-.14-2.53-.4-3.72-.78s-2.3-.86-3.34-1.45c-1.04-.59-1.97-1.26-2.78-2.03.76-1.3,1.53-2.6,2.29-3.91.19-.29.44-.53.75-.74s.64-.33.98-.36c.48-.04,1,.11,1.56.46.56.35,1.23.73,2,1.14s1.67.77,2.71,1.07c1.03.3,2.27.38,3.72.24,2.22-.22,3.93-.92,5.15-2.1,1.21-1.18,1.82-2.75,1.82-4.71,0-1.1-.27-1.96-.82-2.6-.55-.64-1.28-1.14-2.18-1.52-.91-.38-1.94-.67-3.09-.88-1.16-.21-2.33-.45-3.53-.72s-2.37-.62-3.53-1.06c-1.16-.43-2.19-1.05-3.1-1.84s-1.64-1.81-2.19-3.06-.82-2.83-.83-4.74c0-1.52.3-3.03.91-4.52.61-1.49,1.49-2.85,2.65-4.06,1.16-1.22,2.59-2.24,4.28-3.07,1.7-.83,3.65-1.35,5.84-1.57,2.47-.25,4.74-.1,6.82.44,2.08.54,3.85,1.42,5.31,2.63-.64,1.3-1.29,2.6-1.93,3.89h0Z" fill="#4d4d4d" stroke-width="0"/>
        <path d="M260.41,156.41c.6-.09,1.21-.18,1.81-.27.73-.11,1.33-.3,1.81-.57.48-.28.89-.66,1.24-1.15,3.82-5.44,7.64-10.91,11.46-16.41.48-.7.98-1.21,1.51-1.54.53-.33,1.19-.56,1.99-.7,2.22-.38,4.43-.78,6.65-1.18-4.65,6.63-9.3,13.22-13.96,19.76-.82,1.19-1.68,2.08-2.56,2.66.63.13,1.2.36,1.71.69.51.33.99.8,1.45,1.4,4.8,5.73,9.6,11.41,14.39,17.04-2.26.42-4.52.82-6.79,1.22-.92.16-1.6.15-2.05-.03-.45-.18-.83-.5-1.13-.95-3.91-4.47-7.83-8.98-11.74-13.52-.36-.46-.79-.77-1.26-.9-.48-.14-1.17-.14-2.07,0-.82.12-1.63.24-2.45.36v18.36c-2.58.37-5.16.73-7.75,1.08v-41.74c2.58-.35,5.17-.71,7.75-1.08v17.49-.02Z" fill="#4d4d4d" stroke-width="0"/>
        <path d="M304.02,172.98c-2.57.53-5.13,1.05-7.7,1.56v-41.74c2.57-.5,5.14-1.02,7.7-1.56v41.74Z" fill="#4d4d4d" stroke-width="0"/>
      </g>
      <path d="M15.64,96.38c3.33-1.15,5.42-1.54,8.83-2.26-.42.74-1.18,1.74-1.65,1.88-4.48,1.4-8.78,2.79-12.88,4.95-1.94,1.05-3.97,2.15-5.29,3.97-.87,1.16-1.6,2.63-1.3,4.12.44,1.78,1.51,3.41,2.98,4.52,1.55,1.17,3.28,2.07,5.03,2.9,3.88,1.77,7.95,3.08,12.05,4.23,9.63,2.65,19.47,4.42,29.34,5.9,23.28,3.39,46.79,5.05,70.29,5.92,10.79.38,21.59.59,32.39.55,19.18.04,38.37-.55,57.51-1.79,11.54-.77,23.06-1.78,34.54-3.19,11.26-1.39,22.49-3.09,33.55-5.65,4.53-1.07,9.04-2.26,13.43-3.79,3.03-1.07,6.04-2.26,8.8-3.92,1.38-.85,2.76-1.82,3.62-3.23.79-1.24,1.43-2.77.99-4.25-.7-2.44-2.6-4.37-4.77-5.59-4.9-2.79-9.13-4.17-14.55-5.64-.04,0-.08-.03-.11-.05-.8-.62-1.04-1.03-1.6-1.85,4.71,1.1,7.66,1.79,12.2,3.53,3.4,1.32,6.79,2.91,9.5,5.4,1.58,1.47,2.85,3.48,2.75,5.71-.11,2.45-1.79,4.49-3.63,5.97-3.32,2.6-7.25,4.26-11.18,5.7-8.44,3-17.23,4.89-26.03,6.52-10.82,1.97-21.73,3.38-32.66,4.52-32.63,3.31-65.46,4.23-98.24,3.74-22.72-.41-45.44-1.56-68.04-3.95-7.6-.81-15.18-1.77-22.73-2.97-8.82-1.41-17.63-3.05-26.25-5.42-4.69-1.32-9.37-2.82-13.75-4.97-2.08-1.05-4.14-2.23-5.88-3.79-1.3-1.2-2.45-2.69-2.79-4.46-.34-1.63.12-3.35,1.04-4.71,1.21-1.84,3.03-3.18,4.88-4.33,3.01-1.81,6.3-3.07,9.6-4.24v.02Z" fill="#4d4d4d" stroke-width="0"/>
    </g>
    <g>
      <path d="M404.01,104.59c1.82,0,3.45-.3,4.88-.91s2.64-1.46,3.62-2.55c.98-1.1,1.73-2.43,2.26-3.99s.79-3.31.79-5.25v-30.31h9.42v30.31c0,3.01-.48,5.79-1.45,8.35-.97,2.55-2.36,4.76-4.17,6.61-1.81,1.86-4.01,3.3-6.6,4.34s-5.51,1.56-8.75,1.56-6.2-.52-8.79-1.56-4.79-2.49-6.6-4.34c-1.81-1.85-3.2-4.06-4.17-6.61-.97-2.56-1.45-5.34-1.45-8.35v-30.31h9.42v30.28c0,1.94.26,3.69.79,5.25s1.28,2.9,2.28,4.01c.99,1.11,2.21,1.97,3.64,2.57,1.44.61,3.06.91,4.88.91h0Z" fill="#4d4d4d" stroke-width="0"/>
      <path d="M458.75,83.87c-.26.33-.51.58-.75.77s-.6.28-1.07.28-.88-.13-1.29-.4c-.42-.27-.92-.57-1.5-.91s-1.28-.64-2.08-.91c-.81-.27-1.8-.4-2.99-.4-1.52,0-2.85.27-3.99.82-1.14.55-2.09,1.34-2.85,2.36-.76,1.03-1.32,2.27-1.7,3.73-.37,1.46-.56,3.11-.56,4.95s.2,3.62.61,5.11,1,2.75,1.77,3.76,1.7,1.79,2.8,2.31c1.1.53,2.33.79,3.71.79s2.49-.17,3.34-.51,1.57-.71,2.15-1.12,1.09-.78,1.52-1.12.92-.51,1.45-.51c.7,0,1.23.27,1.58.8l2.49,3.15c-.96,1.12-2,2.06-3.12,2.82-1.12.76-2.28,1.36-3.48,1.82-1.2.46-2.44.78-3.71.96-1.27.19-2.54.28-3.8.28-2.22,0-4.3-.42-6.26-1.24s-3.67-2.04-5.14-3.62c-1.47-1.59-2.63-3.53-3.48-5.83s-1.28-4.92-1.28-7.86c0-2.64.38-5.08,1.14-7.33s1.87-4.2,3.34-5.84c1.47-1.65,3.29-2.93,5.46-3.87,2.17-.93,4.67-1.4,7.49-1.4s5.03.43,7.05,1.29c2.02.86,3.83,2.1,5.44,3.71l-2.27,3.15h-.02Z" fill="#4d4d4d" stroke-width="0"/>
      <path d="M492.56,79.85c0,.61-.11,1.2-.32,1.79s-.49,1.06-.84,1.43l-17.04,22.47h17.67v6.65h-27.72v-3.61c0-.4.09-.87.28-1.42s.47-1.07.84-1.56l17.22-22.71h-17.33v-6.62h27.23v3.57h.01Z" fill="#4d4d4d" stroke-width="0"/>
      <path d="M504.95,95.32c.14,1.84.47,3.44.98,4.78s1.19,2.45,2.03,3.33,1.84,1.53,2.99,1.96c1.15.43,2.43.65,3.83.65s2.61-.16,3.62-.49,1.9-.69,2.66-1.08c.76-.4,1.42-.76,2-1.08.57-.33,1.13-.49,1.66-.49.72,0,1.26.27,1.61.8l2.49,3.15c-.96,1.12-2.03,2.06-3.22,2.82-1.19.76-2.43,1.36-3.73,1.82s-2.61.78-3.96.96c-1.34.19-2.64.28-3.9.28-2.5,0-4.82-.42-6.97-1.24s-4.01-2.05-5.6-3.67c-1.59-1.62-2.83-3.63-3.75-6.02s-1.37-5.16-1.37-8.31c0-2.45.4-4.75,1.19-6.91s1.93-4.04,3.41-5.63c1.48-1.6,3.29-2.86,5.43-3.8,2.13-.93,4.54-1.4,7.23-1.4,2.26,0,4.35.36,6.26,1.08,1.91.72,3.56,1.78,4.93,3.17,1.38,1.39,2.46,3.09,3.24,5.11.78,2.02,1.17,4.32,1.17,6.91,0,1.31-.14,2.19-.42,2.64s-.82.68-1.61.68h-22.22l.02-.02ZM521.44,90.11c0-1.12-.16-2.18-.47-3.17-.32-.99-.79-1.86-1.42-2.61s-1.43-1.33-2.4-1.77c-.97-.43-2.09-.65-3.38-.65-2.5,0-4.46.71-5.9,2.14-1.44,1.42-2.35,3.44-2.75,6.05h16.32Z" fill="#4d4d4d" stroke-width="0"/>
      <path d="M544.43,60.18v52.01h-8.64v-52.01h8.64Z" fill="#4d4d4d" stroke-width="0"/>
      <path d="M561.16,80.69c.72-.72,1.49-1.39,2.29-2.01s1.66-1.14,2.55-1.58c.9-.43,1.86-.77,2.89-1.01,1.03-.25,2.15-.37,3.36-.37,1.96,0,3.7.33,5.21,1s2.78,1.6,3.8,2.8c1.01,1.2,1.78,2.64,2.31,4.31s.79,3.51.79,5.51v22.86h-8.64v-22.86c0-2.19-.5-3.89-1.5-5.09s-2.53-1.8-4.58-1.8c-1.49,0-2.89.34-4.2,1.01-1.31.68-2.54,1.6-3.71,2.77v25.97h-8.65v-35.91h5.29c1.12,0,1.86.53,2.21,1.58l.6,2.83h-.02Z" fill="#4d4d4d" stroke-width="0"/>
      <path d="M602.71,65.81c0,.75-.15,1.45-.46,2.1-.3.65-.71,1.23-1.21,1.72s-1.09.88-1.77,1.17-1.4.44-2.17.44-1.45-.15-2.12-.44c-.67-.29-1.24-.68-1.73-1.17s-.88-1.06-1.17-1.72c-.29-.65-.44-1.35-.44-2.1s.15-1.49.44-2.17.68-1.26,1.17-1.75,1.07-.88,1.73-1.17c.67-.29,1.37-.44,2.12-.44s1.49.15,2.17.44c.68.29,1.27.68,1.77,1.17s.9,1.07,1.21,1.75c.3.68.46,1.4.46,2.17ZM601.52,76.27v35.91h-8.68v-35.91h8.68Z" fill="#4d4d4d" stroke-width="0"/>
      <path d="M609.5,81.28c4.13-3.78,9.1-5.67,14.91-5.67,2.1,0,3.98.34,5.63,1.03,1.66.69,3.06,1.65,4.2,2.87,1.14,1.23,2.01,2.69,2.61,4.39s.89,3.57.89,5.6v22.68h-3.92c-.82,0-1.45-.12-1.89-.37s-.79-.74-1.05-1.49l-.77-2.59c-.91.82-1.8,1.54-2.66,2.15-.86.62-1.76,1.14-2.69,1.56s-1.93.74-2.99.96-2.23.33-3.52.33c-1.52,0-2.92-.2-4.2-.61s-2.39-1.02-3.33-1.84c-.93-.82-1.66-1.83-2.17-3.04-.51-1.21-.77-2.62-.77-4.24,0-.91.15-1.81.46-2.71.3-.9.8-1.75,1.49-2.57s1.58-1.59,2.68-2.31,2.44-1.35,4.04-1.89,3.46-.97,5.58-1.31,4.55-.54,7.28-.61v-2.1c0-2.4-.51-4.18-1.54-5.34-1.03-1.16-2.51-1.73-4.45-1.73-1.4,0-2.56.16-3.48.49s-1.73.69-2.43,1.1-1.34.78-1.91,1.1c-.57.33-1.21.49-1.91.49-.61,0-1.12-.16-1.54-.47-.42-.32-.76-.68-1.02-1.1l-1.54-2.77h0ZM629.31,96.86c-2.5.12-4.6.33-6.3.65-1.7.32-3.07.72-4.1,1.21-1.03.49-1.76,1.06-2.21,1.71s-.67,1.37-.67,2.13c0,1.52.45,2.6,1.35,3.25s2.07.98,3.52.98c1.77,0,3.31-.32,4.6-.96s2.56-1.62,3.8-2.92v-6.05h.01Z" fill="#4d4d4d" stroke-width="0"/>
      <path d="M414.41,174.42v7.77h-29.65v-18.45l-6.3,3.15v-6.51c0-.79.35-1.35,1.05-1.68l5.25-2.73v-24.4h9.42v20.16l12.53-6.26v6.33c0,.96-.4,1.59-1.19,1.89l-11.34,5.88v14.84h20.23,0Z" fill="#4d4d4d" stroke-width="0"/>
      <path d="M418.92,151.28c4.13-3.78,9.1-5.67,14.91-5.67,2.1,0,3.98.34,5.63,1.03,1.66.69,3.06,1.65,4.2,2.87,1.14,1.23,2.01,2.69,2.61,4.39.6,1.7.89,3.57.89,5.6v22.68h-3.92c-.82,0-1.45-.12-1.89-.37s-.79-.74-1.05-1.49l-.77-2.59c-.91.82-1.8,1.54-2.66,2.15-.86.62-1.76,1.14-2.69,1.56-.93.42-1.93.74-2.99.96s-2.23.33-3.52.33c-1.52,0-2.92-.2-4.2-.61-1.28-.41-2.39-1.02-3.33-1.84-.93-.82-1.66-1.83-2.17-3.04-.51-1.21-.77-2.62-.77-4.24,0-.91.15-1.81.46-2.71.3-.9.8-1.75,1.49-2.57s1.58-1.59,2.68-2.31,2.44-1.35,4.04-1.89,3.46-.97,5.58-1.31,4.55-.54,7.28-.61v-2.1c0-2.4-.51-4.18-1.54-5.34s-2.51-1.73-4.45-1.73c-1.4,0-2.56.16-3.48.49s-1.73.69-2.43,1.1-1.34.78-1.91,1.1c-.57.33-1.21.49-1.91.49-.61,0-1.12-.16-1.54-.47-.42-.32-.76-.68-1.02-1.1l-1.54-2.77h.01ZM438.73,166.86c-2.5.12-4.6.33-6.3.65-1.7.32-3.07.72-4.1,1.21s-1.76,1.06-2.21,1.71-.67,1.37-.67,2.13c0,1.52.45,2.6,1.35,3.25.9.65,2.07.98,3.52.98,1.77,0,3.31-.32,4.6-.96s2.56-1.62,3.8-2.92v-6.05h.01Z" fill="#4d4d4d" stroke-width="0"/>
      <path d="M481.08,149.85c0,.61-.11,1.2-.32,1.79s-.49,1.06-.84,1.43l-17.04,22.47h17.67v6.65h-27.72v-3.61c0-.4.09-.87.28-1.42.19-.55.47-1.07.84-1.56l17.22-22.71h-17.33v-6.62h27.23v3.57h.01Z" fill="#4d4d4d" stroke-width="0"/>
      <path d="M486.61,151.28c4.13-3.78,9.1-5.67,14.91-5.67,2.1,0,3.98.34,5.63,1.03,1.66.69,3.06,1.65,4.2,2.87,1.14,1.23,2.01,2.69,2.61,4.39s.89,3.57.89,5.6v22.68h-3.92c-.82,0-1.45-.12-1.89-.37s-.79-.74-1.05-1.49l-.77-2.59c-.91.82-1.8,1.54-2.66,2.15-.86.62-1.76,1.14-2.69,1.56-.93.42-1.93.74-2.99.96s-2.23.33-3.52.33c-1.52,0-2.92-.2-4.2-.61-1.28-.41-2.39-1.02-3.33-1.84-.93-.82-1.66-1.83-2.17-3.04-.51-1.21-.77-2.62-.77-4.24,0-.91.15-1.81.46-2.71.3-.9.8-1.75,1.49-2.57s1.58-1.59,2.68-2.31,2.44-1.35,4.04-1.89,3.46-.97,5.58-1.31,4.55-.54,7.28-.61v-2.1c0-2.4-.51-4.18-1.54-5.34-1.03-1.16-2.51-1.73-4.45-1.73-1.4,0-2.56.16-3.48.49s-1.73.69-2.43,1.1-1.34.78-1.91,1.1c-.57.33-1.21.49-1.91.49-.61,0-1.12-.16-1.54-.47-.42-.32-.76-.68-1.02-1.1l-1.54-2.77h0ZM506.42,166.86c-2.5.12-4.6.33-6.3.65-1.7.32-3.07.72-4.1,1.21-1.03.49-1.76,1.06-2.21,1.71s-.67,1.37-.67,2.13c0,1.52.45,2.6,1.35,3.25.9.65,2.07.98,3.52.98,1.77,0,3.31-.32,4.6-.96s2.56-1.62,3.8-2.92v-6.05h.01Z" fill="#4d4d4d" stroke-width="0"/>
      <path d="M531.13,152.51c1.12-2.15,2.45-3.83,3.99-5.06s3.36-1.84,5.46-1.84c1.66,0,2.99.36,3.99,1.08l-.56,6.48c-.12.42-.29.72-.51.89-.22.17-.52.26-.89.26-.35,0-.87-.06-1.56-.17-.69-.12-1.36-.17-2.01-.17-.96,0-1.81.14-2.55.42-.75.28-1.42.68-2.01,1.21-.59.52-1.12,1.16-1.58,1.91s-.88,1.6-1.28,2.55v22.12h-8.65v-35.91h5.08c.89,0,1.5.16,1.86.47.35.32.58.88.7,1.7l.52,4.06h0Z" fill="#4d4d4d" stroke-width="0"/>
      <path d="M570.89,153.28c-.23.37-.48.64-.73.79-.26.15-.58.23-.98.23-.42,0-.87-.12-1.35-.35-.48-.23-1.03-.5-1.66-.79s-1.35-.55-2.15-.79c-.81-.23-1.76-.35-2.85-.35-1.7,0-3.04.36-4.01,1.08-.97.72-1.45,1.67-1.45,2.83,0,.77.25,1.42.75,1.94.5.53,1.17.99,2,1.38s1.77.75,2.82,1.07c1.05.31,2.12.66,3.2,1.03s2.15.8,3.2,1.28,1.99,1.08,2.82,1.82,1.49,1.62,2,2.64c.5,1.03.75,2.26.75,3.71,0,1.73-.31,3.32-.93,4.78s-1.54,2.72-2.75,3.78-2.71,1.89-4.5,2.49c-1.79.59-3.84.89-6.18.89-1.24,0-2.44-.11-3.62-.33s-2.31-.53-3.4-.93c-1.08-.4-2.09-.86-3.01-1.4s-1.73-1.12-2.43-1.75l2-3.29c.26-.4.56-.7.91-.91s.79-.32,1.33-.32,1.04.15,1.52.46c.48.3,1.03.63,1.66.98.63.35,1.37.68,2.22.98.85.3,1.93.46,3.24.46,1.03,0,1.91-.12,2.64-.37.74-.25,1.34-.57,1.82-.96.48-.4.83-.86,1.05-1.38.22-.53.33-1.07.33-1.63,0-.84-.25-1.53-.75-2.07-.5-.54-1.17-1-2-1.4s-1.77-.75-2.83-1.07-2.15-.66-3.25-1.03c-1.11-.37-2.19-.81-3.25-1.31s-2.01-1.14-2.83-1.91c-.83-.77-1.49-1.71-2-2.83-.5-1.12-.75-2.47-.75-4.06,0-1.47.29-2.87.88-4.2s1.44-2.49,2.57-3.48c1.13-.99,2.54-1.79,4.23-2.38,1.69-.6,3.65-.89,5.86-.89,2.47,0,4.73.41,6.76,1.22,2.03.82,3.72,1.89,5.07,3.22l-1.96,3.12h-.01Z" fill="#4d4d4d" stroke-width="0"/>
      <path d="M588.39,130.18v29.79h1.61c.58,0,1.04-.08,1.38-.23s.68-.46,1.03-.93l8.92-11.03c.37-.49.79-.86,1.24-1.12.46-.26,1.04-.38,1.77-.38h7.91l-11.17,13.33c-.79,1.05-1.66,1.86-2.59,2.42.49.35.93.76,1.31,1.23s.75.97,1.1,1.5l11.97,17.43h-7.8c-.68,0-1.26-.11-1.75-.33s-.9-.62-1.23-1.21l-9.17-13.62c-.33-.54-.67-.89-1.01-1.05-.35-.16-.88-.25-1.58-.25h-1.96v16.45h-8.65v-52.01h8.67Z" fill="#4d4d4d" stroke-width="0"/>
      <path d="M627.31,135.81c0,.75-.15,1.45-.46,2.1-.3.65-.71,1.23-1.21,1.72s-1.09.88-1.77,1.17-1.4.44-2.17.44-1.45-.15-2.12-.44c-.67-.29-1.24-.68-1.73-1.17s-.88-1.06-1.17-1.72c-.29-.65-.44-1.35-.44-2.1s.15-1.49.44-2.17.68-1.26,1.17-1.75,1.07-.88,1.73-1.17c.67-.29,1.37-.44,2.12-.44s1.49.15,2.17.44c.68.29,1.27.68,1.77,1.17s.9,1.07,1.21,1.75c.3.68.46,1.4.46,2.17ZM626.12,146.27v35.91h-8.68v-35.91h8.68Z" fill="#4d4d4d" stroke-width="0"/>
      <path d="M641.59,165.32c.14,1.84.47,3.44.98,4.78s1.19,2.45,2.03,3.33,1.84,1.53,2.99,1.96c1.15.43,2.43.65,3.83.65s2.61-.16,3.62-.49,1.9-.69,2.66-1.08c.76-.4,1.42-.76,2-1.08.57-.33,1.13-.49,1.66-.49.72,0,1.26.27,1.61.8l2.49,3.15c-.96,1.12-2.03,2.06-3.22,2.82-1.19.76-2.43,1.36-3.73,1.82s-2.61.78-3.96.96c-1.34.19-2.64.28-3.9.28-2.5,0-4.82-.42-6.97-1.24s-4.01-2.05-5.6-3.67c-1.59-1.62-2.83-3.63-3.75-6.02s-1.37-5.16-1.37-8.31c0-2.45.4-4.75,1.19-6.91s1.93-4.04,3.41-5.63c1.48-1.6,3.29-2.86,5.43-3.8,2.13-.93,4.54-1.4,7.23-1.4,2.26,0,4.35.36,6.26,1.08,1.91.72,3.56,1.78,4.93,3.17,1.38,1.39,2.46,3.09,3.24,5.11.78,2.02,1.17,4.32,1.17,6.91,0,1.31-.14,2.19-.42,2.64s-.82.68-1.61.68h-22.22l.02-.02ZM658.08,160.11c0-1.12-.16-2.18-.47-3.17-.32-.99-.79-1.86-1.42-2.61s-1.43-1.33-2.4-1.77c-.97-.43-2.09-.65-3.38-.65-2.5,0-4.46.71-5.9,2.14-1.44,1.42-2.35,3.44-2.75,6.05h16.32Z" fill="#4d4d4d" stroke-width="0"/>
      <path d="M703.82,147.5v3.22c0,1.03-.62,1.66-1.85,1.89l-3.22.59c.49,1.24.73,2.59.73,4.06,0,1.77-.36,3.38-1.07,4.81s-1.7,2.65-2.96,3.66c-1.26,1-2.75,1.78-4.46,2.33s-3.56.82-5.55.82c-.7,0-1.38-.04-2.03-.11s-1.29-.16-1.92-.28c-1.12.68-1.68,1.43-1.68,2.27,0,.72.33,1.25,1,1.59s1.54.58,2.64.72c1.1.14,2.34.23,3.74.26,1.4.04,2.84.11,4.31.23s2.91.32,4.3.61c1.4.29,2.65.75,3.75,1.38s1.98,1.49,2.64,2.57c.67,1.09,1,2.48,1,4.18,0,1.59-.39,3.13-1.17,4.62-.78,1.49-1.91,2.82-3.4,3.99-1.48,1.17-3.3,2.11-5.46,2.82s-4.61,1.07-7.37,1.07-5.06-.26-7.07-.79-3.67-1.23-5-2.1-2.32-1.88-2.97-3.03c-.65-1.14-.98-2.33-.98-3.57,0-1.68.51-3.09,1.52-4.22,1.02-1.13,2.41-2.04,4.18-2.71-.96-.49-1.71-1.14-2.28-1.96-.56-.82-.84-1.89-.84-3.22,0-.54.1-1.09.3-1.66s.49-1.14.88-1.7c.38-.56.87-1.09,1.45-1.59s1.27-.95,2.07-1.35c-1.82-.98-3.25-2.29-4.29-3.92s-1.56-3.55-1.56-5.74c0-1.77.36-3.38,1.07-4.81.71-1.44,1.7-2.66,2.97-3.67,1.27-1.02,2.78-1.79,4.51-2.33,1.74-.54,3.63-.8,5.69-.8,1.54,0,2.99.16,4.34.47,1.35.31,2.59.78,3.71,1.38h10.32v.02ZM695.21,183.79c0-.7-.21-1.27-.63-1.72-.42-.44-.99-.79-1.71-1.03-.72-.25-1.57-.42-2.54-.54s-2-.2-3.08-.26-2.21-.11-3.36-.16c-1.16-.05-2.28-.14-3.38-.28-.96.54-1.73,1.17-2.33,1.89-.6.72-.89,1.56-.89,2.52,0,.63.16,1.22.47,1.77s.82,1.02,1.5,1.42c.69.4,1.58.71,2.68.93s2.44.33,4.03.33,3-.12,4.17-.37,2.13-.58,2.89-1.01c.76-.43,1.31-.95,1.66-1.54.35-.6.53-1.24.53-1.94h0ZM685.44,163.35c1.07,0,2.01-.15,2.8-.44.79-.29,1.45-.69,1.98-1.21.52-.51.92-1.13,1.19-1.86.27-.72.4-1.52.4-2.38,0-1.77-.53-3.18-1.59-4.22-1.06-1.04-2.66-1.56-4.78-1.56s-3.72.52-4.78,1.56c-1.06,1.04-1.59,2.44-1.59,4.22,0,.84.13,1.62.4,2.34s.67,1.35,1.19,1.87c.53.52,1.19.93,2,1.22.81.29,1.73.44,2.78.44v.02Z" fill="#4d4d4d" stroke-width="0"/>
      <path d="M724.54,145.72c2.66,0,5.08.43,7.26,1.29s4.05,2.09,5.6,3.67,2.75,3.52,3.59,5.81,1.26,4.84,1.26,7.67-.42,5.41-1.26,7.7-2.04,4.24-3.59,5.84c-1.55,1.61-3.42,2.85-5.6,3.71s-4.6,1.29-7.26,1.29-5.12-.43-7.32-1.29c-2.19-.86-4.07-2.1-5.62-3.71-1.55-1.61-2.75-3.56-3.61-5.84-.85-2.29-1.28-4.85-1.28-7.7s.43-5.38,1.28-7.67c.85-2.29,2.05-4.22,3.61-5.81s3.42-2.81,5.62-3.67,4.63-1.29,7.32-1.29ZM724.54,176.06c2.99,0,5.2-1,6.63-3.01s2.15-4.95,2.15-8.82-.72-6.83-2.15-8.85c-1.44-2.03-3.65-3.05-6.63-3.05s-5.28,1.02-6.74,3.06c-1.46,2.04-2.19,4.99-2.19,8.84s.73,6.78,2.19,8.8,3.7,3.03,6.74,3.03Z" fill="#4d4d4d" stroke-width="0"/>
    </g>
  </g>
</svg>